<?xml version="1.0" encoding="utf-8" ?>
<svg xmlns="http://www.w3.org/2000/svg" xmlns:xlink="http://www.w3.org/1999/xlink" width="64" height="64" viewBox="0 0 64 64">
	<defs>
		<clipPath id="clipPath8582060497">
			<path transform="matrix(1 0 0 1 0 0)" d="M0 0L64 0L64 64L0 64L0 0Z" fill-rule="nonzero"/>
		</clipPath>
	</defs>
	<g clip-path="url(#clipPath8582060497)">
		<defs>
			<clipPath id="clipPath6118392218">
				<path transform="matrix(1 0 0 1 0 0)" d="M0 0L64 0L64 64L0 64L0 0Z" fill-rule="nonzero"/>
			</clipPath>
		</defs>
		<g clip-path="url(#clipPath6118392218)">
			<path transform="matrix(1 0 0 1 0 0)" d="M28 12L30 8L34 6L30 4L28 0L26 4L22 6L26 8L28 12ZM10 20L13.3325 13.3337L20 10L13.3325 6.66625L10 0L6.6675 6.66625L0 10L6.6675 13.3337L10 20ZM54 36L50.6675 42.6663L44 46L50.6675 49.3338L54 56L57.3325 49.3337L64 46L57.3325 42.6662L54 36ZM62.8275 11.7787L52.2212 1.1725C51.4412 0.39 50.4175 0 49.3937 0C48.37 0 47.3462 0.39 46.565 1.1725L1.1725 46.565C-0.39 48.1275 -0.39 50.66 1.1725 52.2212L11.7787 62.8275C12.56 63.6087 13.5837 63.9987 14.6062 63.9987C15.63 63.9987 16.6537 63.6087 17.435 62.8275L62.8275 17.4338C64.39 15.8738 64.39 13.34 62.8275 11.7787ZM44.9313 25.4325L38.5675 19.0688L49.3925 8.24375L55.7563 14.6075L44.9313 25.4325Z" fill-rule="nonzero" fill="rgb(0, 255, 148)"/>
		</g>
	</g>
</svg>
