<?xml version="1.0" encoding="utf-8" ?>
<svg xmlns="http://www.w3.org/2000/svg" xmlns:xlink="http://www.w3.org/1999/xlink" width="40" height="64" viewBox="0 0 40 64">
	<defs>
		<clipPath id="clipPath7922850028">
			<path transform="matrix(1 0 0 1 0 0)" d="M0 0L40 0L40 64L0 64L0 0Z" fill-rule="nonzero"/>
		</clipPath>
	</defs>
	<g clip-path="url(#clipPath7922850028)">
		<defs>
			<clipPath id="clipPath4827470832">
				<path transform="matrix(1 0 0 1 0 0)" d="M0 0L40 0L40 64L0 64L0 0Z" fill-rule="nonzero"/>
			</clipPath>
		</defs>
		<g clip-path="url(#clipPath4827470832)">
			<path transform="matrix(1 0 0 1 7.5 0)" d="M21.25 0L3.75 0C1.67969 0 0 2.6875 0 6L0 58C0 61.3125 1.67969 64 3.75 64L21.25 64C23.3203 64 25 61.3125 25 58L25 6C25 2.6875 23.3203 0 21.25 0ZM12.5 60C11.1172 60 10 58.2125 10 56C10 53.7875 11.1172 52 12.5 52C13.8828 52 15 53.7875 15 56C15 58.2125 13.8828 60 12.5 60Z" fill-rule="nonzero" fill="rgb(0, 255, 148)"/>
		</g>
	</g>
</svg>
