<?xml version="1.0" encoding="utf-8" ?>
<svg xmlns="http://www.w3.org/2000/svg" xmlns:xlink="http://www.w3.org/1999/xlink" width="64" height="64" viewBox="0 0 64 64">
	<defs>
		<clipPath id="clipPath9863636859">
			<path transform="matrix(1 0 0 1 0 0)" d="M0 0L64 0L64 64L0 64L0 0Z" fill-rule="nonzero"/>
		</clipPath>
	</defs>
	<g clip-path="url(#clipPath9863636859)">
		<defs>
			<clipPath id="clipPath4308383767">
				<path transform="matrix(1 0 0 1 0 0)" d="M0 0L64 0L64 64L0 64L0 0Z" fill-rule="nonzero"/>
			</clipPath>
		</defs>
		<g clip-path="url(#clipPath4308383767)">
			<path transform="matrix(1 0 0 1 -0.0062499 0)" d="M62.6437 49.4625L48.0062 34.825C45.1187 31.9375 40.8062 31.375 37.3312 33.0875L24.0063 19.7625L24.0063 12L8.00625 0L0.0062499 8L12.0063 24L19.7688 24L33.0938 37.325C31.3937 40.8 31.9438 45.1125 34.8312 48L49.4688 62.6375C51.2938 64.4625 54.2438 64.4625 56.0563 62.6375L62.6438 56.05C64.4563 54.225 64.4563 51.275 62.6437 49.4625ZM41.4688 28.125C45.0062 28.125 48.3312 29.5 50.8312 32L53.2562 34.425C55.2312 33.5625 57.1062 32.3625 58.7312 30.7375C63.3687 26.1 64.9437 19.575 63.4687 13.65C63.1937 12.525 61.7812 12.1375 60.9562 12.9625L51.6562 22.2625L43.1687 20.85L41.7562 12.3625L51.0562 3.0625C51.8812 2.2375 51.4812 0.825 50.3437 0.5375C44.4187 -0.925 37.8937 0.65 33.2687 5.275C29.7062 8.8375 28.0312 13.5375 28.1187 18.225L38.3812 28.4875C39.3937 28.25 40.4437 28.125 41.4688 28.125ZM28.4813 38.375L21.3938 31.2875L2.34375 50.35C-0.78125 53.475 -0.78125 58.5375 2.34375 61.6625C5.46875 64.7875 10.5312 64.7875 13.6562 61.6625L29.1062 46.2125C28.1562 43.725 27.8687 41.0125 28.4813 38.375ZM8.00625 59C6.35625 59 5.00625 57.65 5.00625 56C5.00625 54.3375 6.34375 53 8.00625 53C9.66875 53 11.0063 54.3375 11.0063 56C11.0063 57.65 9.66875 59 8.00625 59Z" fill-rule="nonzero" fill="rgb(0, 255, 148)"/>
		</g>
	</g>
</svg>
